# xmcd
#
# Track frame offsets:
#	150
#	14918
#	29816
#	46032
#	62813
#	80803
#	98516
#	114178
#	131464
#	146536
#	165745
#
# Disc length: 2406 seconds
#
# Revision: 0
# Processed by: cddbd v1.5PL3 Copyright (c) Steve Scherf et al.
# Submitted via: MusicManager 7.0.6.0 
#
DISCID=9209640b
DTITLE=Nie Neute - Den 3de
DYEAR=1900
DGENRE=Folk
TTITLE0=Mane Tatoe
TTITLE1=Elvis
TTITLE2=Tegen Beter Weten In
TTITLE3='t Es Al Van Ma
TTITLE4=O.C.M.W.
TTITLE5=Poeske
TTITLE6=Niemand, Moeder
TTITLE7=Levenslang
TTITLE8='t Es Toch Zu Giestig
TTITLE9=De Soldoiten  Van De Keizer
TTITLE10='k Ben Verliefd
EXTD=
EXTT0=
EXTT1=
EXTT2=
EXTT3=
EXTT4=
EXTT5=
EXTT6=
EXTT7=
EXTT8=
EXTT9=
EXTT10=
PLAYORDER=
